<svg width="48" height="48" viewBox="0 0 48 48" fill="none" xmlns="http://www.w3.org/2000/svg">
<path d="M40.0005 17.0891C39.9026 16.7771 39.7825 16.4725 39.641 16.1778V16.1588C38.9807 14.8106 37.8859 13.7258 36.5342 13.0804C35.1825 12.4351 33.6531 12.2669 32.1943 12.6032C30.7354 12.9396 29.4325 13.7607 28.497 14.9334C27.5614 16.1061 27.0481 17.5616 27.0403 19.0638C27.0404 19.5363 27.0912 20.0073 27.1917 20.4689C27.1921 20.4752 27.1921 20.4816 27.1917 20.4879C27.2295 20.6778 27.2863 20.8676 27.343 21.0575C27.6807 22.3951 27.7464 23.7872 27.5362 25.1508C27.3261 26.5144 26.8443 27.8215 26.1196 28.9942C25.395 30.1668 24.4424 31.1809 23.3187 31.976C22.195 32.771 20.9231 33.3307 19.5791 33.6217C18.2351 33.9126 16.8465 33.9288 15.4961 33.6693C14.1457 33.4099 12.8612 32.88 11.7194 32.1114C10.5775 31.3428 9.60164 30.3513 8.85001 29.1959C8.09839 28.0405 7.58642 26.745 7.34466 25.3866C7.68654 27.7412 8.51731 29.9974 9.78318 32.0093C11.0491 34.0212 12.7218 35.7439 14.6932 37.0659C16.6646 38.3879 18.8906 39.2796 21.2272 39.6835C23.5637 40.0873 25.9588 39.9942 28.2572 39.4102C30.5556 38.8262 32.7063 37.7643 34.5698 36.2932C36.4334 34.8222 37.9684 32.9748 39.0754 30.8707C40.1824 28.7665 40.8367 26.4525 40.9961 24.0785C41.1555 21.7044 40.8163 19.3233 40.0005 17.0891Z" fill="url(#paint0_linear_85_165)"/>
<path d="M13.1155 22.8042C15.3102 26.0131 19.851 25.7283 19.851 25.7283C18.7158 24.627 17.9779 23.6207 17.9022 20.7536C17.8266 17.8865 16.1994 17.127 16.1994 17.127C19.1131 15.2852 18.0725 13.2915 17.9779 11.07C17.9212 9.68394 18.7347 8.65862 19.378 8.07001C15.6755 8.6266 12.3299 10.5959 10.0388 13.5673C7.74765 16.5387 6.68774 20.283 7.08003 24.0194C7.34491 23.2789 11.0911 19.8422 13.1155 22.8042Z" fill="url(#paint1_linear_85_165)"/>
<path d="M40.0005 17.0891C39.9026 16.7771 39.7825 16.4725 39.641 16.1778V16.1588C38.9807 14.8106 37.8859 13.7258 36.5342 13.0804C35.1825 12.4351 33.6531 12.2669 32.1943 12.6032C30.7354 12.9396 29.4325 13.7607 28.497 14.9334C27.5614 16.1061 27.0481 17.5616 27.0403 19.0638C27.0404 19.5363 27.0912 20.0073 27.1917 20.4689C27.1921 20.4752 27.1921 20.4816 27.1917 20.4879C27.2295 20.6778 27.2863 20.8676 27.343 21.0575C27.6807 22.3951 27.7464 23.7872 27.5362 25.1508C27.3261 26.5144 26.8443 27.8215 26.1196 28.9942C25.395 30.1668 24.4424 31.1809 23.3187 31.976C22.195 32.771 20.9231 33.3307 19.5791 33.6217C18.2351 33.9126 16.8465 33.9288 15.4961 33.6693C14.1457 33.4099 12.8612 32.88 11.7194 32.1114C10.5775 31.3428 9.60164 30.3513 8.85001 29.1959C8.09839 28.0405 7.58642 26.745 7.34466 25.3866C7.68654 27.7412 8.51731 29.9974 9.78318 32.0093C11.0491 34.0212 12.7218 35.7439 14.6932 37.0659C16.6646 38.3879 18.8906 39.2796 21.2272 39.6835C23.5637 40.0873 25.9588 39.9942 28.2572 39.4102C30.5556 38.8262 32.7063 37.7643 34.5698 36.2932C36.4334 34.8222 37.9684 32.9748 39.0754 30.8707C40.1824 28.7665 40.8367 26.4525 40.9961 24.0785C41.1555 21.7044 40.8163 19.3233 40.0005 17.0891Z" fill="url(#paint2_linear_85_165)"/>
<path fill-rule="evenodd" clip-rule="evenodd" d="M37.1815 21.6651C37.1815 29.9389 30.4981 36.6461 22.2537 36.6461C17.8774 36.6461 13.9409 34.7562 11.2105 31.7453C11.3763 31.8723 11.5462 31.9944 11.7199 32.1114C12.8618 32.88 14.1463 33.4098 15.4966 33.6693C16.847 33.9288 18.2357 33.9125 19.5797 33.6216C20.9237 33.3306 22.1955 32.7709 23.3192 31.9759C24.443 31.1808 25.3956 30.1667 26.1202 28.9941C26.8448 27.8215 27.3266 26.5143 27.5368 25.1507C27.747 23.7871 27.6813 22.395 27.3436 21.0575C27.2868 20.8676 27.2301 20.6777 27.1922 20.4878C27.1927 20.4815 27.1927 20.4752 27.1922 20.4688C27.0917 20.0073 27.041 19.5362 27.0409 19.0638C27.0487 17.5616 27.562 16.1061 28.4975 14.9334C29.433 13.7606 30.7359 12.9395 32.1948 12.6032C32.7965 12.4645 33.4102 12.4116 34.0184 12.4426C36.0003 14.9852 37.1815 18.1867 37.1815 21.6651Z" fill="url(#paint3_linear_85_165)"/>
<defs>
<linearGradient id="paint0_linear_85_165" x1="38.4017" y1="14.3967" x2="14.1641" y2="37.0993" gradientUnits="userSpaceOnUse">
<stop stop-color="#6378FF"/>
<stop offset="1" stop-color="#6312FF"/>
</linearGradient>
<linearGradient id="paint1_linear_85_165" x1="17.3343" y1="6.07388" x2="3.01165" y2="28.577" gradientUnits="userSpaceOnUse">
<stop stop-color="#0AA3F9"/>
<stop offset="1" stop-color="#B5B4FF"/>
</linearGradient>
<linearGradient id="paint2_linear_85_165" x1="46.0469" y1="40.6988" x2="23.1947" y2="11.56" gradientUnits="userSpaceOnUse">
<stop stop-color="#0AA3F9"/>
<stop offset="1" stop-color="#B5B4FF"/>
</linearGradient>
<linearGradient id="paint3_linear_85_165" x1="33.2036" y1="12.44" x2="12.087" y2="33.9398" gradientUnits="userSpaceOnUse">
<stop stop-color="#7ABBFD"/>
<stop offset="1" stop-color="#7ABBFD" stop-opacity="0"/>
</linearGradient>
</defs>
</svg>
